<svg xmlns="http://www.w3.org/2000/svg" viewBox="0 0 32 32" fill="none">
  <rect width="32" height="32" rx="7" fill="#F5F3EF"/>
  <circle cx="16" cy="7.5" r="2.4" stroke="#1C1B18" stroke-width="1.4"/>
  <path d="M16 9.9C19 11.4 20.2 9.2 19 6.8" stroke="#1C1B18" stroke-width="1.4" stroke-linecap="round"/>
  <path d="M16 9.9C13.5 12.4 12 15.2 10.6 17.2 8.7 18.8 7.7 20.4 8.6 21.2 10 22.3 12.5 21 14 19.4 15 18.3 15.5 17.8 16 17.8c.5 0 1 .5 2 1.6 1.5 1.6 4 2.9 5.4 1.8.9-.8-.1-2.4-2-4-1.4-2-2.9-4.8-5.4-7.3Z" stroke="#1C1B18" stroke-width="1.4" stroke-linecap="round" stroke-linejoin="round"/>
  <path d="M9.2 21.2C8.7 23.2 10.6 24 12.6 23.1 14 22.4 15 21.9 16 21.9c1 0 2 .5 3.4 1.2 2 .9 3.9.1 3.4-1.9" stroke="#1C1B18" stroke-width="1.4" stroke-linecap="round"/>
</svg>
